<mxfile host="Electron" agent="Mozilla/5.0 (Macintosh; Intel Mac OS X 10_15_7) AppleWebKit/537.36 (KHTML, like Gecko) draw.io/26.1.1 Chrome/132.0.6834.210 Electron/34.3.3 Safari/537.36" version="26.1.1" pages="3">
  <diagram name="Запись пациентов" id="-BxjTvf49sDNfJ511bh9">
    <mxGraphModel dx="1222" dy="872" grid="0" gridSize="1" guides="1" tooltips="1" connect="1" arrows="1" fold="1" page="0" pageScale="1" pageWidth="827" pageHeight="1169" math="0" shadow="0">
      <root>
        <mxCell id="0" />
        <mxCell id="1" parent="0" />
        <mxCell id="cvqWlgvmNwLobobYWvYB-20" value="&lt;div style=&quot;&quot;&gt;&lt;span style=&quot;background-color: transparent; font-size: 10px;&quot;&gt;Excel-файл учёта пациентов&lt;/span&gt;&lt;/div&gt;" style="html=1;dashed=0;whiteSpace=wrap;shape=partialRectangle;right=0;align=left;fillColor=#fff2cc;strokeColor=#d6b656;" vertex="1" parent="1">
          <mxGeometry x="2053" y="474" width="235" height="30" as="geometry" />
        </mxCell>
        <mxCell id="cvqWlgvmNwLobobYWvYB-1" value="1.0" style="swimlane;fontStyle=0;childLayout=stackLayout;horizontal=1;startSize=20;fillColor=#dae8fc;horizontalStack=0;resizeParent=1;resizeParentMax=0;resizeLast=0;collapsible=0;marginBottom=0;swimlaneFillColor=#ffffff;strokeColor=#6c8ebf;" vertex="1" parent="1">
          <mxGeometry x="1270" y="560" width="100" height="50" as="geometry" />
        </mxCell>
        <mxCell id="cvqWlgvmNwLobobYWvYB-2" value="Указывает перс.&lt;br&gt;данные" style="text;strokeColor=#6c8ebf;align=center;fillColor=#dae8fc;html=1;verticalAlign=middle;whiteSpace=wrap;rounded=0;" vertex="1" parent="cvqWlgvmNwLobobYWvYB-1">
          <mxGeometry y="20" width="100" height="30" as="geometry" />
        </mxCell>
        <mxCell id="cvqWlgvmNwLobobYWvYB-3" value="Пациент" style="html=1;dashed=0;whiteSpace=wrap;fillColor=#bac8d3;strokeColor=#23445d;" vertex="1" parent="1">
          <mxGeometry x="1058" y="560" width="100" height="50" as="geometry" />
        </mxCell>
        <mxCell id="cvqWlgvmNwLobobYWvYB-4" value="Администратор" style="html=1;dashed=0;whiteSpace=wrap;fillColor=#bac8d3;strokeColor=#23445d;" vertex="1" parent="1">
          <mxGeometry x="1483" y="560" width="100" height="50" as="geometry" />
        </mxCell>
        <mxCell id="cvqWlgvmNwLobobYWvYB-5" value="2.0" style="swimlane;fontStyle=0;childLayout=stackLayout;horizontal=1;startSize=20;fillColor=#d5e8d4;horizontalStack=0;resizeParent=1;resizeParentMax=0;resizeLast=0;collapsible=0;marginBottom=0;swimlaneFillColor=#ffffff;strokeColor=#82b366;" vertex="1" parent="1">
          <mxGeometry x="1638" y="656" width="100" height="50" as="geometry" />
        </mxCell>
        <mxCell id="cvqWlgvmNwLobobYWvYB-6" value="Поиск пациента в файле" style="text;strokeColor=#82b366;align=center;fillColor=#d5e8d4;html=1;verticalAlign=middle;whiteSpace=wrap;rounded=0;" vertex="1" parent="cvqWlgvmNwLobobYWvYB-5">
          <mxGeometry y="20" width="100" height="30" as="geometry" />
        </mxCell>
        <mxCell id="cvqWlgvmNwLobobYWvYB-7" value="3.0" style="swimlane;fontStyle=0;childLayout=stackLayout;horizontal=1;startSize=20;fillColor=#f8cecc;horizontalStack=0;resizeParent=1;resizeParentMax=0;resizeLast=0;collapsible=0;marginBottom=0;swimlaneFillColor=#ffffff;strokeColor=#b85450;" vertex="1" parent="1">
          <mxGeometry x="1638" y="460" width="100" height="50" as="geometry" />
        </mxCell>
        <mxCell id="cvqWlgvmNwLobobYWvYB-8" value="Поиск времени&amp;nbsp;&lt;br&gt;у врача" style="text;strokeColor=#b85450;align=center;fillColor=#f8cecc;html=1;verticalAlign=middle;whiteSpace=wrap;rounded=0;" vertex="1" parent="cvqWlgvmNwLobobYWvYB-7">
          <mxGeometry y="20" width="100" height="30" as="geometry" />
        </mxCell>
        <mxCell id="cvqWlgvmNwLobobYWvYB-10" value="2.1" style="swimlane;fontStyle=0;childLayout=stackLayout;horizontal=1;startSize=20;fillColor=#d5e8d4;horizontalStack=0;resizeParent=1;resizeParentMax=0;resizeLast=0;collapsible=0;marginBottom=0;swimlaneFillColor=#ffffff;strokeColor=#82b366;" vertex="1" parent="1">
          <mxGeometry x="1373" y="700" width="100" height="50" as="geometry" />
        </mxCell>
        <mxCell id="cvqWlgvmNwLobobYWvYB-11" value="Создание нового пациента" style="text;strokeColor=#82b366;align=center;fillColor=#d5e8d4;html=1;verticalAlign=middle;whiteSpace=wrap;rounded=0;" vertex="1" parent="cvqWlgvmNwLobobYWvYB-10">
          <mxGeometry y="20" width="100" height="30" as="geometry" />
        </mxCell>
        <mxCell id="cvqWlgvmNwLobobYWvYB-12" value="3.2" style="swimlane;fontStyle=0;childLayout=stackLayout;horizontal=1;startSize=20;fillColor=#f8cecc;horizontalStack=0;resizeParent=1;resizeParentMax=0;resizeLast=0;collapsible=0;marginBottom=0;swimlaneFillColor=#ffffff;strokeColor=#b85450;" vertex="1" parent="1">
          <mxGeometry x="1868" y="560" width="100" height="50" as="geometry" />
        </mxCell>
        <mxCell id="cvqWlgvmNwLobobYWvYB-13" value="Создание новой записи клиенту" style="text;strokeColor=#b85450;align=center;fillColor=#f8cecc;html=1;verticalAlign=middle;whiteSpace=wrap;rounded=0;" vertex="1" parent="cvqWlgvmNwLobobYWvYB-12">
          <mxGeometry y="20" width="100" height="30" as="geometry" />
        </mxCell>
        <mxCell id="cvqWlgvmNwLobobYWvYB-16" value="3.1" style="swimlane;fontStyle=0;childLayout=stackLayout;horizontal=1;startSize=20;fillColor=#f8cecc;horizontalStack=0;resizeParent=1;resizeParentMax=0;resizeLast=0;collapsible=0;marginBottom=0;swimlaneFillColor=#ffffff;strokeColor=#b85450;" vertex="1" parent="1">
          <mxGeometry x="1868" y="408" width="100" height="50" as="geometry" />
        </mxCell>
        <mxCell id="cvqWlgvmNwLobobYWvYB-17" value="Создание записи на приём" style="text;strokeColor=#b85450;align=center;fillColor=#f8cecc;html=1;verticalAlign=middle;whiteSpace=wrap;rounded=0;" vertex="1" parent="cvqWlgvmNwLobobYWvYB-16">
          <mxGeometry y="20" width="100" height="30" as="geometry" />
        </mxCell>
        <mxCell id="cvqWlgvmNwLobobYWvYB-18" value="" style="endArrow=classic;html=1;rounded=0;exitX=1;exitY=0.5;exitDx=0;exitDy=0;" edge="1" parent="1" source="cvqWlgvmNwLobobYWvYB-3">
          <mxGeometry width="50" height="50" relative="1" as="geometry">
            <mxPoint x="1220" y="635" as="sourcePoint" />
            <mxPoint x="1270" y="585" as="targetPoint" />
          </mxGeometry>
        </mxCell>
        <mxCell id="cvqWlgvmNwLobobYWvYB-19" value="" style="endArrow=classic;html=1;rounded=0;exitX=1;exitY=0.5;exitDx=0;exitDy=0;" edge="1" parent="1">
          <mxGeometry width="50" height="50" relative="1" as="geometry">
            <mxPoint x="1371" y="585" as="sourcePoint" />
            <mxPoint x="1483" y="585" as="targetPoint" />
          </mxGeometry>
        </mxCell>
        <mxCell id="cvqWlgvmNwLobobYWvYB-21" value="&lt;div style=&quot;&quot;&gt;&lt;span style=&quot;font-size: 10px;&quot;&gt;Excel-файл учёта пациентов&lt;/span&gt;&lt;/div&gt;" style="html=1;dashed=0;whiteSpace=wrap;shape=partialRectangle;right=0;align=left;fillColor=#fff2cc;strokeColor=#d6b656;" vertex="1" parent="1">
          <mxGeometry x="1898" y="768" width="235" height="30" as="geometry" />
        </mxCell>
        <mxCell id="cvqWlgvmNwLobobYWvYB-22" value="&lt;div style=&quot;&quot;&gt;&lt;span style=&quot;background-color: transparent; font-size: 10px;&quot;&gt;Excel-файлы&lt;/span&gt;&lt;span style=&quot;font-size: 10px;&quot;&gt;&amp;nbsp;пациента в разных форматах&lt;/span&gt;&lt;/div&gt;" style="html=1;dashed=0;whiteSpace=wrap;shape=partialRectangle;right=0;align=left;fillColor=#fff2cc;strokeColor=#d6b656;" vertex="1" parent="1">
          <mxGeometry x="1445" y="985" width="235" height="30" as="geometry" />
        </mxCell>
        <mxCell id="cvqWlgvmNwLobobYWvYB-23" value="" style="endArrow=classic;html=1;rounded=0;exitX=0.5;exitY=1;exitDx=0;exitDy=0;" edge="1" parent="1" source="cvqWlgvmNwLobobYWvYB-4">
          <mxGeometry width="50" height="50" relative="1" as="geometry">
            <mxPoint x="1589" y="732" as="sourcePoint" />
            <mxPoint x="1638" y="682" as="targetPoint" />
            <Array as="points">
              <mxPoint x="1533" y="682" />
            </Array>
          </mxGeometry>
        </mxCell>
        <mxCell id="cvqWlgvmNwLobobYWvYB-24" value="" style="endArrow=classic;html=1;rounded=0;exitX=0.75;exitY=1;exitDx=0;exitDy=0;entryX=0;entryY=0.5;entryDx=0;entryDy=0;" edge="1" parent="1" source="cvqWlgvmNwLobobYWvYB-6" target="cvqWlgvmNwLobobYWvYB-21">
          <mxGeometry width="50" height="50" relative="1" as="geometry">
            <mxPoint x="1813" y="614" as="sourcePoint" />
            <mxPoint x="1882" y="773" as="targetPoint" />
            <Array as="points">
              <mxPoint x="1713" y="783" />
            </Array>
          </mxGeometry>
        </mxCell>
        <mxCell id="cvqWlgvmNwLobobYWvYB-25" value="2.2" style="swimlane;fontStyle=0;childLayout=stackLayout;horizontal=1;startSize=20;fillColor=#d5e8d4;horizontalStack=0;resizeParent=1;resizeParentMax=0;resizeLast=0;collapsible=0;marginBottom=0;swimlaneFillColor=#ffffff;strokeColor=#82b366;" vertex="1" parent="1">
          <mxGeometry x="1373" y="854" width="100" height="50" as="geometry" />
        </mxCell>
        <mxCell id="cvqWlgvmNwLobobYWvYB-26" value="Создание папки новому пациенту" style="text;strokeColor=#82b366;align=center;fillColor=#d5e8d4;html=1;verticalAlign=middle;whiteSpace=wrap;rounded=0;" vertex="1" parent="cvqWlgvmNwLobobYWvYB-25">
          <mxGeometry y="20" width="100" height="30" as="geometry" />
        </mxCell>
        <mxCell id="cvqWlgvmNwLobobYWvYB-27" value="" style="endArrow=classic;html=1;rounded=0;entryX=1;entryY=0.25;entryDx=0;entryDy=0;exitX=0.25;exitY=1;exitDx=0;exitDy=0;fillColor=#d5e8d4;strokeColor=#000000;" edge="1" parent="1" source="cvqWlgvmNwLobobYWvYB-6" target="cvqWlgvmNwLobobYWvYB-11">
          <mxGeometry width="50" height="50" relative="1" as="geometry">
            <mxPoint x="1634" y="782" as="sourcePoint" />
            <mxPoint x="1684" y="732" as="targetPoint" />
            <Array as="points">
              <mxPoint x="1663" y="728" />
            </Array>
          </mxGeometry>
        </mxCell>
        <mxCell id="cvqWlgvmNwLobobYWvYB-28" value="" style="endArrow=classic;html=1;rounded=0;exitX=0.5;exitY=1;exitDx=0;exitDy=0;entryX=0.5;entryY=0;entryDx=0;entryDy=0;fillColor=#d5e8d4;strokeColor=#000000;" edge="1" parent="1" source="cvqWlgvmNwLobobYWvYB-11" target="cvqWlgvmNwLobobYWvYB-25">
          <mxGeometry width="50" height="50" relative="1" as="geometry">
            <mxPoint x="1458" y="812" as="sourcePoint" />
            <mxPoint x="1508" y="762" as="targetPoint" />
          </mxGeometry>
        </mxCell>
        <mxCell id="cvqWlgvmNwLobobYWvYB-29" value="" style="endArrow=classic;html=1;rounded=0;exitX=0.5;exitY=1;exitDx=0;exitDy=0;entryX=0;entryY=0.5;entryDx=0;entryDy=0;" edge="1" parent="1" source="cvqWlgvmNwLobobYWvYB-26" target="cvqWlgvmNwLobobYWvYB-22">
          <mxGeometry width="50" height="50" relative="1" as="geometry">
            <mxPoint x="1422.6" y="906" as="sourcePoint" />
            <mxPoint x="1422.6" y="1010" as="targetPoint" />
            <Array as="points">
              <mxPoint x="1423" y="1000" />
            </Array>
          </mxGeometry>
        </mxCell>
        <mxCell id="cvqWlgvmNwLobobYWvYB-30" value="" style="endArrow=classic;html=1;rounded=0;exitX=1.004;exitY=0.169;exitDx=0;exitDy=0;entryX=0.513;entryY=1.016;entryDx=0;entryDy=0;entryPerimeter=0;exitPerimeter=0;" edge="1" parent="1" source="cvqWlgvmNwLobobYWvYB-6" target="cvqWlgvmNwLobobYWvYB-13">
          <mxGeometry width="50" height="50" relative="1" as="geometry">
            <mxPoint x="1976" y="594" as="sourcePoint" />
            <mxPoint x="1832" y="637" as="targetPoint" />
            <Array as="points">
              <mxPoint x="1920" y="680" />
            </Array>
          </mxGeometry>
        </mxCell>
        <mxCell id="cvqWlgvmNwLobobYWvYB-32" value="" style="endArrow=classic;html=1;rounded=0;exitX=0.5;exitY=0;exitDx=0;exitDy=0;entryX=0.5;entryY=1;entryDx=0;entryDy=0;" edge="1" parent="1" source="cvqWlgvmNwLobobYWvYB-5" target="cvqWlgvmNwLobobYWvYB-8">
          <mxGeometry width="50" height="50" relative="1" as="geometry">
            <mxPoint x="1533" y="559" as="sourcePoint" />
            <mxPoint x="1637" y="484" as="targetPoint" />
            <Array as="points" />
          </mxGeometry>
        </mxCell>
        <mxCell id="cvqWlgvmNwLobobYWvYB-33" value="" style="endArrow=classic;html=1;rounded=0;exitX=1;exitY=0.314;exitDx=0;exitDy=0;exitPerimeter=0;" edge="1" parent="1" source="cvqWlgvmNwLobobYWvYB-7">
          <mxGeometry width="50" height="50" relative="1" as="geometry">
            <mxPoint x="1804" y="474" as="sourcePoint" />
            <mxPoint x="1868" y="436" as="targetPoint" />
            <Array as="points">
              <mxPoint x="1823" y="476" />
              <mxPoint x="1823" y="436" />
            </Array>
          </mxGeometry>
        </mxCell>
        <mxCell id="cvqWlgvmNwLobobYWvYB-35" value="" style="endArrow=classic;html=1;rounded=0;entryX=-0.001;entryY=0.225;entryDx=0;entryDy=0;entryPerimeter=0;exitX=1.004;exitY=0.271;exitDx=0;exitDy=0;exitPerimeter=0;" edge="1" parent="1" source="cvqWlgvmNwLobobYWvYB-17" target="cvqWlgvmNwLobobYWvYB-20">
          <mxGeometry width="50" height="50" relative="1" as="geometry">
            <mxPoint x="2008" y="436" as="sourcePoint" />
            <mxPoint x="2058" y="386" as="targetPoint" />
            <Array as="points">
              <mxPoint x="2004" y="436" />
              <mxPoint x="2004" y="481" />
            </Array>
          </mxGeometry>
        </mxCell>
        <mxCell id="lKpsyHv8I-froG1-2ILV-1" value="" style="endArrow=classic;html=1;rounded=0;" edge="1" parent="1" target="cvqWlgvmNwLobobYWvYB-21">
          <mxGeometry width="50" height="50" relative="1" as="geometry">
            <mxPoint x="1968" y="588" as="sourcePoint" />
            <mxPoint x="2030" y="588" as="targetPoint" />
            <Array as="points">
              <mxPoint x="2014" y="588" />
            </Array>
          </mxGeometry>
        </mxCell>
        <mxCell id="lKpsyHv8I-froG1-2ILV-4" value="" style="endArrow=classic;html=1;rounded=0;entryX=0.003;entryY=0.859;entryDx=0;entryDy=0;entryPerimeter=0;" edge="1" parent="1" target="cvqWlgvmNwLobobYWvYB-20">
          <mxGeometry width="50" height="50" relative="1" as="geometry">
            <mxPoint x="1738" y="500" as="sourcePoint" />
            <mxPoint x="1848" y="499" as="targetPoint" />
          </mxGeometry>
        </mxCell>
      </root>
    </mxGraphModel>
  </diagram>
  <diagram id="7lwCSrA8UDmjLaAqlTx6" name="Приём пациентов">
    <mxGraphModel dx="1543" dy="-881" grid="0" gridSize="1" guides="1" tooltips="1" connect="1" arrows="1" fold="1" page="0" pageScale="1" pageWidth="827" pageHeight="1169" math="0" shadow="0">
      <root>
        <mxCell id="0" />
        <mxCell id="1" parent="0" />
        <mxCell id="8t6wWwIbjvm63w_CFg4k-4" value="Пациент" style="html=1;dashed=0;whiteSpace=wrap;fillColor=#bac8d3;strokeColor=#23445d;" vertex="1" parent="1">
          <mxGeometry x="-1" y="1877" width="100" height="50" as="geometry" />
        </mxCell>
        <mxCell id="8t6wWwIbjvm63w_CFg4k-34" value="Администратор" style="html=1;dashed=0;whiteSpace=wrap;fillColor=#bac8d3;strokeColor=#23445d;" vertex="1" parent="1">
          <mxGeometry x="256" y="1877" width="100" height="50" as="geometry" />
        </mxCell>
        <mxCell id="8t6wWwIbjvm63w_CFg4k-35" value="Врач" style="html=1;dashed=0;whiteSpace=wrap;fillColor=#bac8d3;strokeColor=#23445d;" vertex="1" parent="1">
          <mxGeometry x="256" y="2132" width="100" height="50" as="geometry" />
        </mxCell>
        <mxCell id="8t6wWwIbjvm63w_CFg4k-36" value="Кассир" style="html=1;dashed=0;whiteSpace=wrap;fillColor=#bac8d3;strokeColor=#23445d;" vertex="1" parent="1">
          <mxGeometry x="156" y="2325" width="100" height="50" as="geometry" />
        </mxCell>
        <mxCell id="8t6wWwIbjvm63w_CFg4k-37" value="1.0" style="swimlane;fontStyle=0;childLayout=stackLayout;horizontal=1;startSize=20;fillColor=#dae8fc;horizontalStack=0;resizeParent=1;resizeParentMax=0;resizeLast=0;collapsible=0;marginBottom=0;swimlaneFillColor=#ffffff;strokeColor=#6c8ebf;" vertex="1" parent="1">
          <mxGeometry x="123" y="1799" width="100" height="50" as="geometry" />
        </mxCell>
        <mxCell id="8t6wWwIbjvm63w_CFg4k-38" value="Называет ФИО" style="text;strokeColor=#6c8ebf;align=center;fillColor=#dae8fc;html=1;verticalAlign=middle;whiteSpace=wrap;rounded=0;" vertex="1" parent="8t6wWwIbjvm63w_CFg4k-37">
          <mxGeometry y="20" width="100" height="30" as="geometry" />
        </mxCell>
        <mxCell id="8t6wWwIbjvm63w_CFg4k-39" value="" style="endArrow=classic;html=1;rounded=0;exitX=0.49;exitY=-0.01;exitDx=0;exitDy=0;exitPerimeter=0;entryX=-0.003;entryY=0.174;entryDx=0;entryDy=0;entryPerimeter=0;" edge="1" parent="1" source="8t6wWwIbjvm63w_CFg4k-4" target="8t6wWwIbjvm63w_CFg4k-38">
          <mxGeometry width="50" height="50" relative="1" as="geometry">
            <mxPoint x="32" y="1796" as="sourcePoint" />
            <mxPoint x="132" y="1796" as="targetPoint" />
            <Array as="points">
              <mxPoint x="48" y="1824" />
            </Array>
          </mxGeometry>
        </mxCell>
        <mxCell id="8t6wWwIbjvm63w_CFg4k-40" value="" style="endArrow=classic;html=1;rounded=0;exitX=1.005;exitY=0.162;exitDx=0;exitDy=0;exitPerimeter=0;" edge="1" parent="1" source="8t6wWwIbjvm63w_CFg4k-38">
          <mxGeometry width="50" height="50" relative="1" as="geometry">
            <mxPoint x="239" y="1824" as="sourcePoint" />
            <mxPoint x="289" y="1877" as="targetPoint" />
            <Array as="points">
              <mxPoint x="289" y="1824" />
            </Array>
          </mxGeometry>
        </mxCell>
        <mxCell id="8t6wWwIbjvm63w_CFg4k-41" value="1.2" style="swimlane;fontStyle=0;childLayout=stackLayout;horizontal=1;startSize=20;fillColor=#dae8fc;horizontalStack=0;resizeParent=1;resizeParentMax=0;resizeLast=0;collapsible=0;marginBottom=0;swimlaneFillColor=#ffffff;strokeColor=#6c8ebf;" vertex="1" parent="1">
          <mxGeometry x="123" y="1944" width="100" height="50" as="geometry" />
        </mxCell>
        <mxCell id="8t6wWwIbjvm63w_CFg4k-42" value="Заключает&lt;br&gt;соглашения" style="text;strokeColor=#6c8ebf;align=center;fillColor=#dae8fc;html=1;verticalAlign=middle;whiteSpace=wrap;rounded=0;" vertex="1" parent="8t6wWwIbjvm63w_CFg4k-41">
          <mxGeometry y="20" width="100" height="30" as="geometry" />
        </mxCell>
        <mxCell id="8t6wWwIbjvm63w_CFg4k-43" value="" style="endArrow=classic;html=1;rounded=0;exitX=0.337;exitY=1.007;exitDx=0;exitDy=0;exitPerimeter=0;entryX=1;entryY=0.161;entryDx=0;entryDy=0;entryPerimeter=0;" edge="1" parent="1" source="8t6wWwIbjvm63w_CFg4k-34" target="8t6wWwIbjvm63w_CFg4k-42">
          <mxGeometry width="50" height="50" relative="1" as="geometry">
            <mxPoint x="306" y="1928" as="sourcePoint" />
            <mxPoint x="238" y="2016" as="targetPoint" />
            <Array as="points">
              <mxPoint x="290" y="1969" />
            </Array>
          </mxGeometry>
        </mxCell>
        <mxCell id="8t6wWwIbjvm63w_CFg4k-44" value="1.3" style="swimlane;fontStyle=0;childLayout=stackLayout;horizontal=1;startSize=20;fillColor=#dae8fc;horizontalStack=0;resizeParent=1;resizeParentMax=0;resizeLast=0;collapsible=0;marginBottom=0;swimlaneFillColor=#ffffff;strokeColor=#6c8ebf;" vertex="1" parent="1">
          <mxGeometry x="378" y="1942" width="100" height="50" as="geometry" />
        </mxCell>
        <mxCell id="8t6wWwIbjvm63w_CFg4k-45" value="Сохраняет документы" style="text;strokeColor=#6c8ebf;align=center;fillColor=#dae8fc;html=1;verticalAlign=middle;whiteSpace=wrap;rounded=0;" vertex="1" parent="8t6wWwIbjvm63w_CFg4k-44">
          <mxGeometry y="20" width="100" height="30" as="geometry" />
        </mxCell>
        <mxCell id="8t6wWwIbjvm63w_CFg4k-46" value="" style="endArrow=classic;html=1;rounded=0;entryX=-0.003;entryY=0.203;entryDx=0;entryDy=0;entryPerimeter=0;" edge="1" parent="1" target="8t6wWwIbjvm63w_CFg4k-45">
          <mxGeometry width="50" height="50" relative="1" as="geometry">
            <mxPoint x="324" y="1927" as="sourcePoint" />
            <mxPoint x="372" y="1943" as="targetPoint" />
            <Array as="points">
              <mxPoint x="324" y="1968" />
            </Array>
          </mxGeometry>
        </mxCell>
        <mxCell id="8t6wWwIbjvm63w_CFg4k-47" value="&lt;div style=&quot;&quot;&gt;&lt;span style=&quot;font-size: 10px; background-color: transparent; color: light-dark(rgb(0, 0, 0), rgb(255, 255, 255));&quot;&gt;Excel-файлы&lt;/span&gt;&lt;span style=&quot;font-size: 10px;&quot;&gt;&amp;nbsp;пациента в разных форматах&lt;/span&gt;&lt;/div&gt;" style="html=1;dashed=0;whiteSpace=wrap;shape=partialRectangle;right=0;align=left;fillColor=#fff2cc;strokeColor=#d6b656;" vertex="1" parent="1">
          <mxGeometry x="568" y="2012" width="235" height="30" as="geometry" />
        </mxCell>
        <mxCell id="8t6wWwIbjvm63w_CFg4k-48" value="" style="endArrow=classic;html=1;rounded=0;exitX=1.003;exitY=0.199;exitDx=0;exitDy=0;exitPerimeter=0;entryX=-0.002;entryY=0.303;entryDx=0;entryDy=0;entryPerimeter=0;" edge="1" parent="1" source="8t6wWwIbjvm63w_CFg4k-45" target="8t6wWwIbjvm63w_CFg4k-47">
          <mxGeometry width="50" height="50" relative="1" as="geometry">
            <mxPoint x="478" y="2020" as="sourcePoint" />
            <mxPoint x="535" y="2024" as="targetPoint" />
            <Array as="points">
              <mxPoint x="512" y="1968" />
              <mxPoint x="512" y="2020" />
              <mxPoint x="512" y="2021" />
            </Array>
          </mxGeometry>
        </mxCell>
        <mxCell id="8t6wWwIbjvm63w_CFg4k-49" value="" style="endArrow=classic;html=1;rounded=0;exitX=1.004;exitY=0.195;exitDx=0;exitDy=0;exitPerimeter=0;entryX=-0.001;entryY=0.795;entryDx=0;entryDy=0;entryPerimeter=0;" edge="1" parent="1" source="8t6wWwIbjvm63w_CFg4k-51" target="8t6wWwIbjvm63w_CFg4k-47">
          <mxGeometry width="50" height="50" relative="1" as="geometry">
            <mxPoint x="485" y="2160" as="sourcePoint" />
            <mxPoint x="521" y="2038" as="targetPoint" />
            <Array as="points">
              <mxPoint x="512" y="2080" />
              <mxPoint x="512" y="2036" />
            </Array>
          </mxGeometry>
        </mxCell>
        <mxCell id="8t6wWwIbjvm63w_CFg4k-50" value="2.0" style="swimlane;fontStyle=0;childLayout=stackLayout;horizontal=1;startSize=20;fillColor=#d5e8d4;horizontalStack=0;resizeParent=1;resizeParentMax=0;resizeLast=0;collapsible=0;marginBottom=0;swimlaneFillColor=#ffffff;strokeColor=#82b366;" vertex="1" parent="1">
          <mxGeometry x="378" y="2054" width="100" height="50" as="geometry" />
        </mxCell>
        <mxCell id="8t6wWwIbjvm63w_CFg4k-51" value="Работает в папке пациента" style="text;strokeColor=#82b366;align=center;fillColor=#d5e8d4;html=1;verticalAlign=middle;whiteSpace=wrap;rounded=0;" vertex="1" parent="8t6wWwIbjvm63w_CFg4k-50">
          <mxGeometry y="20" width="100" height="30" as="geometry" />
        </mxCell>
        <mxCell id="8t6wWwIbjvm63w_CFg4k-52" value="" style="endArrow=classic;html=1;rounded=0;entryX=-0.003;entryY=0.303;entryDx=0;entryDy=0;entryPerimeter=0;exitX=0.524;exitY=0.004;exitDx=0;exitDy=0;exitPerimeter=0;" edge="1" parent="1" source="8t6wWwIbjvm63w_CFg4k-35" target="8t6wWwIbjvm63w_CFg4k-51">
          <mxGeometry width="50" height="50" relative="1" as="geometry">
            <mxPoint x="309" y="2131" as="sourcePoint" />
            <mxPoint x="377" y="2083" as="targetPoint" />
            <Array as="points">
              <mxPoint x="308" y="2083" />
            </Array>
          </mxGeometry>
        </mxCell>
        <mxCell id="8t6wWwIbjvm63w_CFg4k-53" value="&lt;div style=&quot;&quot;&gt;&lt;span style=&quot;background-color: transparent; font-size: 10px;&quot;&gt;Excel-файл&lt;/span&gt;&lt;span style=&quot;font-size: 10px;&quot;&gt;&amp;nbsp;врача в котором ведётся приём&lt;/span&gt;&lt;/div&gt;" style="html=1;dashed=0;whiteSpace=wrap;shape=partialRectangle;right=0;align=left;fillColor=#fff2cc;strokeColor=#d6b656;" vertex="1" parent="1">
          <mxGeometry x="567" y="2148" width="235" height="30" as="geometry" />
        </mxCell>
        <mxCell id="8t6wWwIbjvm63w_CFg4k-54" value="" style="endArrow=classic;html=1;rounded=0;exitX=0.522;exitY=1.004;exitDx=0;exitDy=0;exitPerimeter=0;" edge="1" parent="1" source="8t6wWwIbjvm63w_CFg4k-35">
          <mxGeometry width="50" height="50" relative="1" as="geometry">
            <mxPoint x="490" y="2277" as="sourcePoint" />
            <mxPoint x="378" y="2227" as="targetPoint" />
            <Array as="points">
              <mxPoint x="308" y="2227" />
            </Array>
          </mxGeometry>
        </mxCell>
        <mxCell id="8t6wWwIbjvm63w_CFg4k-55" value="2.1" style="swimlane;fontStyle=0;childLayout=stackLayout;horizontal=1;startSize=20;fillColor=#d5e8d4;horizontalStack=0;resizeParent=1;resizeParentMax=0;resizeLast=0;collapsible=0;marginBottom=0;swimlaneFillColor=#ffffff;strokeColor=#82b366;" vertex="1" parent="1">
          <mxGeometry x="378" y="2201" width="100" height="50" as="geometry" />
        </mxCell>
        <mxCell id="8t6wWwIbjvm63w_CFg4k-56" value="Вносит заметки&lt;br&gt;по пациенту" style="text;strokeColor=#82b366;align=center;fillColor=#d5e8d4;html=1;verticalAlign=middle;whiteSpace=wrap;rounded=0;" vertex="1" parent="8t6wWwIbjvm63w_CFg4k-55">
          <mxGeometry y="20" width="100" height="30" as="geometry" />
        </mxCell>
        <mxCell id="8t6wWwIbjvm63w_CFg4k-57" value="" style="endArrow=classic;html=1;rounded=0;entryX=-0.002;entryY=0.501;entryDx=0;entryDy=0;entryPerimeter=0;exitX=1.004;exitY=0.165;exitDx=0;exitDy=0;exitPerimeter=0;" edge="1" parent="1" source="8t6wWwIbjvm63w_CFg4k-56" target="8t6wWwIbjvm63w_CFg4k-53">
          <mxGeometry width="50" height="50" relative="1" as="geometry">
            <mxPoint x="480" y="2226" as="sourcePoint" />
            <mxPoint x="539" y="2226" as="targetPoint" />
            <Array as="points">
              <mxPoint x="511" y="2226" />
              <mxPoint x="511" y="2163" />
            </Array>
          </mxGeometry>
        </mxCell>
        <mxCell id="qSYFbw-jJvg2KWc_2ZJ_-1" value="" style="endArrow=classic;html=1;rounded=0;entryX=0.75;entryY=1;entryDx=0;entryDy=0;exitX=-0.006;exitY=0.172;exitDx=0;exitDy=0;exitPerimeter=0;" edge="1" parent="1" source="8t6wWwIbjvm63w_CFg4k-42" target="8t6wWwIbjvm63w_CFg4k-4">
          <mxGeometry width="50" height="50" relative="1" as="geometry">
            <mxPoint x="-24" y="2118" as="sourcePoint" />
            <mxPoint x="26" y="2068" as="targetPoint" />
            <Array as="points">
              <mxPoint x="74" y="1969" />
            </Array>
          </mxGeometry>
        </mxCell>
        <mxCell id="qSYFbw-jJvg2KWc_2ZJ_-2" value="&lt;div style=&quot;&quot;&gt;&lt;span style=&quot;font-size: 10px;&quot;&gt;Excel-файл учёта пациентов&lt;/span&gt;&lt;/div&gt;" style="html=1;dashed=0;whiteSpace=wrap;shape=partialRectangle;right=0;align=left;fillColor=#fff2cc;strokeColor=#d6b656;" vertex="1" parent="1">
          <mxGeometry x="568" y="1859" width="235" height="30" as="geometry" />
        </mxCell>
        <mxCell id="qSYFbw-jJvg2KWc_2ZJ_-3" value="" style="endArrow=classic;html=1;rounded=0;entryX=-0.002;entryY=0.473;entryDx=0;entryDy=0;entryPerimeter=0;exitX=0.679;exitY=-0.009;exitDx=0;exitDy=0;exitPerimeter=0;" edge="1" parent="1" source="8t6wWwIbjvm63w_CFg4k-34" target="qSYFbw-jJvg2KWc_2ZJ_-2">
          <mxGeometry width="50" height="50" relative="1" as="geometry">
            <mxPoint x="324" y="1876" as="sourcePoint" />
            <mxPoint x="374" y="1855" as="targetPoint" />
            <Array as="points">
              <mxPoint x="324" y="1824" />
              <mxPoint x="536" y="1824" />
              <mxPoint x="536" y="1873" />
            </Array>
          </mxGeometry>
        </mxCell>
        <mxCell id="qSYFbw-jJvg2KWc_2ZJ_-4" value="1.1" style="swimlane;fontStyle=0;childLayout=stackLayout;horizontal=1;startSize=20;fillColor=#dae8fc;horizontalStack=0;resizeParent=1;resizeParentMax=0;resizeLast=0;collapsible=0;marginBottom=0;swimlaneFillColor=#ffffff;strokeColor=#6c8ebf;" vertex="1" parent="1">
          <mxGeometry x="378" y="1799" width="100" height="50" as="geometry" />
        </mxCell>
        <mxCell id="qSYFbw-jJvg2KWc_2ZJ_-5" value="Ищет&amp;nbsp;&lt;br&gt;пациента" style="text;strokeColor=#6c8ebf;align=center;fillColor=#dae8fc;html=1;verticalAlign=middle;whiteSpace=wrap;rounded=0;" vertex="1" parent="qSYFbw-jJvg2KWc_2ZJ_-4">
          <mxGeometry y="20" width="100" height="30" as="geometry" />
        </mxCell>
        <mxCell id="qSYFbw-jJvg2KWc_2ZJ_-6" value="" style="endArrow=classic;html=1;rounded=0;exitX=0.25;exitY=1;exitDx=0;exitDy=0;entryX=-0.002;entryY=0.538;entryDx=0;entryDy=0;entryPerimeter=0;" edge="1" parent="1" source="8t6wWwIbjvm63w_CFg4k-4" target="8t6wWwIbjvm63w_CFg4k-36">
          <mxGeometry width="50" height="50" relative="1" as="geometry">
            <mxPoint x="123" y="2468" as="sourcePoint" />
            <mxPoint x="107" y="2468" as="targetPoint" />
            <Array as="points">
              <mxPoint x="24" y="2352" />
            </Array>
          </mxGeometry>
        </mxCell>
        <mxCell id="qSYFbw-jJvg2KWc_2ZJ_-7" value="3.0" style="swimlane;fontStyle=0;childLayout=stackLayout;horizontal=1;startSize=20;fillColor=#f8cecc;horizontalStack=0;resizeParent=1;resizeParentMax=0;resizeLast=0;collapsible=0;marginBottom=0;swimlaneFillColor=#ffffff;strokeColor=#b85450;" vertex="1" parent="1">
          <mxGeometry x="-25" y="2235" width="100" height="50" as="geometry" />
        </mxCell>
        <mxCell id="qSYFbw-jJvg2KWc_2ZJ_-8" value="Производит&amp;nbsp;&lt;br&gt;оплату" style="text;strokeColor=#b85450;align=center;fillColor=#f8cecc;html=1;verticalAlign=middle;whiteSpace=wrap;rounded=0;" vertex="1" parent="qSYFbw-jJvg2KWc_2ZJ_-7">
          <mxGeometry y="20" width="100" height="30" as="geometry" />
        </mxCell>
        <mxCell id="qSYFbw-jJvg2KWc_2ZJ_-9" value="1С.Бухгалтерия" style="html=1;dashed=0;whiteSpace=wrap;fillColor=#bac8d3;strokeColor=#23445d;" vertex="1" parent="1">
          <mxGeometry x="566" y="2325" width="100" height="50" as="geometry" />
        </mxCell>
        <mxCell id="qSYFbw-jJvg2KWc_2ZJ_-10" value="ККМ" style="html=1;dashed=0;whiteSpace=wrap;fillColor=#bac8d3;strokeColor=#23445d;" vertex="1" parent="1">
          <mxGeometry x="566" y="2596" width="100" height="50" as="geometry" />
        </mxCell>
        <mxCell id="qSYFbw-jJvg2KWc_2ZJ_-11" value="" style="endArrow=classic;html=1;rounded=0;entryX=0;entryY=0.5;entryDx=0;entryDy=0;exitX=1;exitY=0.5;exitDx=0;exitDy=0;" edge="1" parent="1" source="8t6wWwIbjvm63w_CFg4k-36" target="qSYFbw-jJvg2KWc_2ZJ_-9">
          <mxGeometry width="50" height="50" relative="1" as="geometry">
            <mxPoint x="356" y="2362" as="sourcePoint" />
            <mxPoint x="406" y="2312" as="targetPoint" />
          </mxGeometry>
        </mxCell>
        <mxCell id="qSYFbw-jJvg2KWc_2ZJ_-12" value="" style="endArrow=classic;html=1;rounded=0;exitX=1.003;exitY=0.166;exitDx=0;exitDy=0;exitPerimeter=0;" edge="1" parent="1">
          <mxGeometry width="50" height="50" relative="1" as="geometry">
            <mxPoint x="617" y="2511" as="sourcePoint" />
            <mxPoint x="617" y="2595" as="targetPoint" />
          </mxGeometry>
        </mxCell>
        <mxCell id="qSYFbw-jJvg2KWc_2ZJ_-13" value="3.1" style="swimlane;fontStyle=0;childLayout=stackLayout;horizontal=1;startSize=20;fillColor=#f8cecc;horizontalStack=0;resizeParent=1;resizeParentMax=0;resizeLast=0;collapsible=0;marginBottom=0;swimlaneFillColor=#ffffff;strokeColor=#b85450;" vertex="1" parent="1">
          <mxGeometry x="378" y="2326" width="100" height="50" as="geometry" />
        </mxCell>
        <mxCell id="qSYFbw-jJvg2KWc_2ZJ_-14" value="Фиксирует&amp;nbsp;&lt;br&gt;оплату" style="text;strokeColor=#b85450;align=center;fillColor=#f8cecc;html=1;verticalAlign=middle;whiteSpace=wrap;rounded=0;" vertex="1" parent="qSYFbw-jJvg2KWc_2ZJ_-13">
          <mxGeometry y="20" width="100" height="30" as="geometry" />
        </mxCell>
        <mxCell id="qSYFbw-jJvg2KWc_2ZJ_-16" value="3.2" style="swimlane;fontStyle=0;childLayout=stackLayout;horizontal=1;startSize=20;fillColor=#f8cecc;horizontalStack=0;resizeParent=1;resizeParentMax=0;resizeLast=0;collapsible=0;marginBottom=0;swimlaneFillColor=#ffffff;strokeColor=#b85450;" vertex="1" parent="1">
          <mxGeometry x="566" y="2461" width="100" height="50" as="geometry" />
        </mxCell>
        <mxCell id="qSYFbw-jJvg2KWc_2ZJ_-17" value="Взаимодействует с кассой" style="text;strokeColor=#b85450;align=center;fillColor=#f8cecc;html=1;verticalAlign=middle;whiteSpace=wrap;rounded=0;" vertex="1" parent="qSYFbw-jJvg2KWc_2ZJ_-16">
          <mxGeometry y="20" width="100" height="30" as="geometry" />
        </mxCell>
        <mxCell id="qSYFbw-jJvg2KWc_2ZJ_-18" value="" style="endArrow=classic;html=1;rounded=0;exitX=0.5;exitY=1;exitDx=0;exitDy=0;entryX=0.5;entryY=0;entryDx=0;entryDy=0;" edge="1" parent="1" source="qSYFbw-jJvg2KWc_2ZJ_-9" target="qSYFbw-jJvg2KWc_2ZJ_-16">
          <mxGeometry width="50" height="50" relative="1" as="geometry">
            <mxPoint x="710" y="2525" as="sourcePoint" />
            <mxPoint x="760" y="2475" as="targetPoint" />
          </mxGeometry>
        </mxCell>
      </root>
    </mxGraphModel>
  </diagram>
  <diagram id="b4R5AdKgGrXGGgzJ69ud" name="Сбор анализов">
    <mxGraphModel dx="1860" dy="919" grid="0" gridSize="1" guides="1" tooltips="1" connect="1" arrows="1" fold="1" page="0" pageScale="1" pageWidth="827" pageHeight="1169" math="0" shadow="0">
      <root>
        <mxCell id="0" />
        <mxCell id="1" parent="0" />
        <mxCell id="rEfmRM0Kp2rZpkIGni6H-1" value="Пациент" style="rounded=0;whiteSpace=wrap;html=1;fillColor=none;" parent="1" vertex="1">
          <mxGeometry x="-94" y="282" width="100" height="40" as="geometry" />
        </mxCell>
        <mxCell id="rEfmRM0Kp2rZpkIGni6H-2" value="Администратор" style="rounded=0;whiteSpace=wrap;html=1;fillColor=none;" parent="1" vertex="1">
          <mxGeometry x="173" y="282" width="100" height="40" as="geometry" />
        </mxCell>
        <mxCell id="rEfmRM0Kp2rZpkIGni6H-3" value="Мед.&lt;br&gt;сестра/брат" style="rounded=0;whiteSpace=wrap;html=1;fillColor=none;" parent="1" vertex="1">
          <mxGeometry x="469" y="282" width="100" height="40" as="geometry" />
        </mxCell>
        <mxCell id="rEfmRM0Kp2rZpkIGni6H-4" value="Сбор&amp;nbsp;&lt;br&gt;анализов" style="html=1;dashed=0;whiteSpace=wrap;shape=mxgraph.dfd.start" parent="1" vertex="1">
          <mxGeometry x="-84" y="199" width="80" height="30" as="geometry" />
        </mxCell>
        <mxCell id="rEfmRM0Kp2rZpkIGni6H-5" value="1&lt;span style=&quot;white-space: pre;&quot;&gt;&#x9;&lt;/span&gt;Файл экселя, который на ресепшене" style="html=1;dashed=0;whiteSpace=wrap;shape=mxgraph.dfd.dataStoreID;align=left;spacingLeft=3;points=[[0,0],[0.5,0],[1,0],[0,0.5],[1,0.5],[0,1],[0.5,1],[1,1]];" parent="1" vertex="1">
          <mxGeometry x="239" y="394" width="260" height="30" as="geometry" />
        </mxCell>
        <mxCell id="rEfmRM0Kp2rZpkIGni6H-6" value="3&lt;span style=&quot;white-space: pre;&quot;&gt;&#x9;&lt;/span&gt;Папка с документами пациента" style="html=1;dashed=0;whiteSpace=wrap;shape=mxgraph.dfd.dataStoreID;align=left;spacingLeft=3;points=[[0,0],[0.5,0],[1,0],[0,0.5],[1,0.5],[0,1],[0.5,1],[1,1]];" parent="1" vertex="1">
          <mxGeometry x="542" y="394" width="260" height="30" as="geometry" />
        </mxCell>
        <mxCell id="rEfmRM0Kp2rZpkIGni6H-7" value="" style="endArrow=classic;html=1;rounded=0;entryX=0;entryY=0.5;entryDx=0;entryDy=0;" parent="1" target="rEfmRM0Kp2rZpkIGni6H-5" edge="1">
          <mxGeometry width="50" height="50" relative="1" as="geometry">
            <mxPoint x="220" y="322" as="sourcePoint" />
            <mxPoint x="397" y="332" as="targetPoint" />
            <Array as="points">
              <mxPoint x="220" y="409" />
            </Array>
          </mxGeometry>
        </mxCell>
        <mxCell id="rEfmRM0Kp2rZpkIGni6H-8" value="Отмечает визит на приём анализов" style="text;strokeColor=none;align=left;fillColor=none;html=1;verticalAlign=middle;whiteSpace=wrap;rounded=0;" parent="1" vertex="1">
          <mxGeometry x="238" y="371" width="226" height="30" as="geometry" />
        </mxCell>
        <mxCell id="rEfmRM0Kp2rZpkIGni6H-9" value="Обращается к файлу пациента,&lt;br&gt;где заранее созданы названия анализов" style="text;strokeColor=none;align=left;fillColor=none;html=1;verticalAlign=middle;whiteSpace=wrap;rounded=0;" parent="1" vertex="1">
          <mxGeometry x="542" y="363" width="249" height="30" as="geometry" />
        </mxCell>
        <mxCell id="rEfmRM0Kp2rZpkIGni6H-10" value="" style="endArrow=classic;html=1;rounded=0;entryX=0;entryY=0.5;entryDx=0;entryDy=0;" parent="1" target="rEfmRM0Kp2rZpkIGni6H-6" edge="1">
          <mxGeometry width="50" height="50" relative="1" as="geometry">
            <mxPoint x="520" y="322" as="sourcePoint" />
            <mxPoint x="678" y="459" as="targetPoint" />
            <Array as="points">
              <mxPoint x="520" y="409" />
            </Array>
          </mxGeometry>
        </mxCell>
        <mxCell id="rEfmRM0Kp2rZpkIGni6H-11" value="" style="endArrow=none;html=1;rounded=0;entryX=0.5;entryY=0;entryDx=0;entryDy=0;exitX=0.5;exitY=0.5;exitDx=0;exitDy=15;exitPerimeter=0;" parent="1" source="rEfmRM0Kp2rZpkIGni6H-4" target="rEfmRM0Kp2rZpkIGni6H-1" edge="1">
          <mxGeometry width="50" height="50" relative="1" as="geometry">
            <mxPoint x="-193" y="302" as="sourcePoint" />
            <mxPoint x="-143" y="252" as="targetPoint" />
          </mxGeometry>
        </mxCell>
        <mxCell id="rEfmRM0Kp2rZpkIGni6H-12" value="" style="endArrow=classic;html=1;rounded=0;entryX=0;entryY=0.5;entryDx=0;entryDy=0;exitX=1;exitY=0.5;exitDx=0;exitDy=0;" parent="1" source="rEfmRM0Kp2rZpkIGni6H-1" edge="1">
          <mxGeometry width="50" height="50" relative="1" as="geometry">
            <mxPoint x="77" y="301" as="sourcePoint" />
            <mxPoint x="173" y="301" as="targetPoint" />
          </mxGeometry>
        </mxCell>
        <mxCell id="rEfmRM0Kp2rZpkIGni6H-13" value="" style="endArrow=classic;html=1;rounded=0;entryX=0;entryY=0.5;entryDx=0;entryDy=0;" parent="1" target="rEfmRM0Kp2rZpkIGni6H-3" edge="1">
          <mxGeometry width="50" height="50" relative="1" as="geometry">
            <mxPoint x="273" y="302.5" as="sourcePoint" />
            <mxPoint x="480" y="304" as="targetPoint" />
          </mxGeometry>
        </mxCell>
        <mxCell id="rEfmRM0Kp2rZpkIGni6H-14" value="" style="endArrow=classic;html=1;rounded=0;" parent="1" edge="1">
          <mxGeometry width="50" height="50" relative="1" as="geometry">
            <mxPoint x="569" y="301.93999999999994" as="sourcePoint" />
            <mxPoint x="792" y="301" as="targetPoint" />
          </mxGeometry>
        </mxCell>
        <mxCell id="rEfmRM0Kp2rZpkIGni6H-15" value="Кассир" style="rounded=0;whiteSpace=wrap;html=1;fillColor=none;" parent="1" vertex="1">
          <mxGeometry x="790" y="281" width="100" height="40" as="geometry" />
        </mxCell>
        <mxCell id="rEfmRM0Kp2rZpkIGni6H-16" value="" style="endArrow=classic;html=1;rounded=0;exitX=0.466;exitY=1.01;exitDx=0;exitDy=0;exitPerimeter=0;entryX=0;entryY=0.5;entryDx=0;entryDy=0;" parent="1" target="rEfmRM0Kp2rZpkIGni6H-17" edge="1">
          <mxGeometry width="50" height="50" relative="1" as="geometry">
            <mxPoint x="520" y="409" as="sourcePoint" />
            <mxPoint x="544" y="496" as="targetPoint" />
            <Array as="points">
              <mxPoint x="520" y="551" />
            </Array>
          </mxGeometry>
        </mxCell>
        <mxCell id="rEfmRM0Kp2rZpkIGni6H-17" value="5&lt;span style=&quot;white-space: pre;&quot;&gt;&#x9;&lt;/span&gt;Папка с документами пациента" style="html=1;dashed=0;whiteSpace=wrap;shape=mxgraph.dfd.dataStoreID;align=left;spacingLeft=3;points=[[0,0],[0.5,0],[1,0],[0,0.5],[1,0.5],[0,1],[0.5,1],[1,1]];" parent="1" vertex="1">
          <mxGeometry x="544" y="536" width="260" height="30" as="geometry" />
        </mxCell>
        <mxCell id="rEfmRM0Kp2rZpkIGni6H-19" value="2&lt;span style=&quot;white-space: pre;&quot;&gt;&#x9;&lt;/span&gt;Папка с документами пациента" style="html=1;dashed=0;whiteSpace=wrap;shape=mxgraph.dfd.dataStoreID;align=left;spacingLeft=3;points=[[0,0],[0.5,0],[1,0],[0,0.5],[1,0.5],[0,1],[0.5,1],[1,1]];" parent="1" vertex="1">
          <mxGeometry x="239" y="485" width="260" height="30" as="geometry" />
        </mxCell>
        <mxCell id="rEfmRM0Kp2rZpkIGni6H-20" value="" style="endArrow=classic;html=1;rounded=0;exitX=0.476;exitY=1.01;exitDx=0;exitDy=0;entryX=0;entryY=0.5;entryDx=0;entryDy=0;exitPerimeter=0;" parent="1" target="rEfmRM0Kp2rZpkIGni6H-19" edge="1">
          <mxGeometry width="50" height="50" relative="1" as="geometry">
            <mxPoint x="220" y="409" as="sourcePoint" />
            <mxPoint x="238" y="496" as="targetPoint" />
            <Array as="points">
              <mxPoint x="220" y="500" />
            </Array>
          </mxGeometry>
        </mxCell>
        <mxCell id="rEfmRM0Kp2rZpkIGni6H-21" value="Создаёт файл со списком анализов" style="text;strokeColor=none;align=left;fillColor=none;html=1;verticalAlign=middle;whiteSpace=wrap;rounded=0;" parent="1" vertex="1">
          <mxGeometry x="238" y="461" width="279" height="30" as="geometry" />
        </mxCell>
        <mxCell id="rEfmRM0Kp2rZpkIGni6H-22" value="Вписывает результаты после исследования" style="text;strokeColor=none;align=left;fillColor=none;html=1;verticalAlign=middle;whiteSpace=wrap;rounded=0;" parent="1" vertex="1">
          <mxGeometry x="543" y="514" width="273" height="30" as="geometry" />
        </mxCell>
        <mxCell id="TvInsam3h-Fq7JIKnaad-1" value="" style="endArrow=classic;html=1;rounded=0;exitX=0.5;exitY=1;exitDx=0;exitDy=0;entryX=0;entryY=0.5;entryDx=0;entryDy=0;" parent="1" source="rEfmRM0Kp2rZpkIGni6H-15" target="TvInsam3h-Fq7JIKnaad-2" edge="1">
          <mxGeometry width="50" height="50" relative="1" as="geometry">
            <mxPoint x="840" y="322" as="sourcePoint" />
            <mxPoint x="897" y="459" as="targetPoint" />
            <Array as="points">
              <mxPoint x="840" y="409" />
            </Array>
          </mxGeometry>
        </mxCell>
        <mxCell id="TvInsam3h-Fq7JIKnaad-2" value="6&lt;span style=&quot;white-space: pre;&quot;&gt;&#x9;&lt;/span&gt;1С Бухгалтерия" style="html=1;dashed=0;whiteSpace=wrap;shape=mxgraph.dfd.dataStoreID;align=left;spacingLeft=3;points=[[0,0],[0.5,0],[1,0],[0,0.5],[1,0.5],[0,1],[0.5,1],[1,1]];" parent="1" vertex="1">
          <mxGeometry x="863" y="394" width="260" height="30" as="geometry" />
        </mxCell>
        <mxCell id="TvInsam3h-Fq7JIKnaad-3" value="Обращается к 1С для фиксации&lt;br&gt;оказания услуг и денежных расчётов" style="text;strokeColor=none;align=left;fillColor=none;html=1;verticalAlign=middle;whiteSpace=wrap;rounded=0;" parent="1" vertex="1">
          <mxGeometry x="862" y="363" width="249" height="30" as="geometry" />
        </mxCell>
        <mxCell id="TvInsam3h-Fq7JIKnaad-4" value="4&lt;span style=&quot;white-space: pre;&quot;&gt;&#x9;&lt;/span&gt;1С Торговля и склад" style="html=1;dashed=0;whiteSpace=wrap;shape=mxgraph.dfd.dataStoreID;align=left;spacingLeft=3;points=[[0,0],[0.5,0],[1,0],[0,0.5],[1,0.5],[0,1],[0.5,1],[1,1]];" parent="1" vertex="1">
          <mxGeometry x="543" y="466" width="260" height="30" as="geometry" />
        </mxCell>
        <mxCell id="TvInsam3h-Fq7JIKnaad-5" value="Списывает использованные расходники" style="text;strokeColor=none;align=left;fillColor=none;html=1;verticalAlign=middle;whiteSpace=wrap;rounded=0;" parent="1" vertex="1">
          <mxGeometry x="542" y="441" width="249" height="30" as="geometry" />
        </mxCell>
        <mxCell id="TvInsam3h-Fq7JIKnaad-6" value="" style="endArrow=classic;html=1;rounded=0;entryX=0;entryY=0.5;entryDx=0;entryDy=0;" parent="1" target="TvInsam3h-Fq7JIKnaad-4" edge="1">
          <mxGeometry width="50" height="50" relative="1" as="geometry">
            <mxPoint x="520" y="481" as="sourcePoint" />
            <mxPoint x="679" y="531" as="targetPoint" />
            <Array as="points">
              <mxPoint x="520" y="481" />
            </Array>
          </mxGeometry>
        </mxCell>
        <mxCell id="e9zXlm7YgeI35q7fpxJ9-1" value="Врач" style="rounded=0;whiteSpace=wrap;html=1;fillColor=none;" parent="1" vertex="1">
          <mxGeometry x="1103" y="281" width="100" height="40" as="geometry" />
        </mxCell>
        <mxCell id="e9zXlm7YgeI35q7fpxJ9-2" value="7&lt;span style=&quot;white-space: pre;&quot;&gt;&#x9;&lt;/span&gt;Папка с документами пациента" style="html=1;dashed=0;whiteSpace=wrap;shape=mxgraph.dfd.dataStoreID;align=left;spacingLeft=3;points=[[0,0],[0.5,0],[1,0],[0,0.5],[1,0.5],[0,1],[0.5,1],[1,1]];" parent="1" vertex="1">
          <mxGeometry x="1176" y="393" width="260" height="30" as="geometry" />
        </mxCell>
        <mxCell id="e9zXlm7YgeI35q7fpxJ9-3" value="Просматривает результаты анализов" style="text;strokeColor=none;align=left;fillColor=none;html=1;verticalAlign=middle;whiteSpace=wrap;rounded=0;" parent="1" vertex="1">
          <mxGeometry x="1174" y="368" width="249" height="30" as="geometry" />
        </mxCell>
        <mxCell id="e9zXlm7YgeI35q7fpxJ9-4" value="" style="endArrow=classic;html=1;rounded=0;exitX=0.5;exitY=1;exitDx=0;exitDy=0;entryX=0;entryY=0.5;entryDx=0;entryDy=0;" parent="1" source="e9zXlm7YgeI35q7fpxJ9-1" target="e9zXlm7YgeI35q7fpxJ9-2" edge="1">
          <mxGeometry width="50" height="50" relative="1" as="geometry">
            <mxPoint x="1256" y="321" as="sourcePoint" />
            <mxPoint x="1312" y="458" as="targetPoint" />
            <Array as="points">
              <mxPoint x="1154" y="408" />
            </Array>
          </mxGeometry>
        </mxCell>
        <mxCell id="e9zXlm7YgeI35q7fpxJ9-5" value="" style="endArrow=classic;html=1;rounded=0;exitX=1;exitY=0.5;exitDx=0;exitDy=0;" parent="1" source="rEfmRM0Kp2rZpkIGni6H-15" edge="1">
          <mxGeometry width="50" height="50" relative="1" as="geometry">
            <mxPoint x="889" y="301.4599999999999" as="sourcePoint" />
            <mxPoint x="1103" y="301" as="targetPoint" />
          </mxGeometry>
        </mxCell>
        <mxCell id="pBG7ZQ73Q339dmQeDpmW-43" value="Пациент" style="html=1;dashed=0;whiteSpace=wrap;fillColor=#bac8d3;strokeColor=#23445d;" vertex="1" parent="1">
          <mxGeometry x="278" y="1958" width="100" height="50" as="geometry" />
        </mxCell>
        <mxCell id="pBG7ZQ73Q339dmQeDpmW-45" value="Администратор" style="html=1;dashed=0;whiteSpace=wrap;fillColor=#bac8d3;strokeColor=#23445d;" vertex="1" parent="1">
          <mxGeometry x="545" y="1958" width="100" height="50" as="geometry" />
        </mxCell>
        <mxCell id="pBG7ZQ73Q339dmQeDpmW-46" value="Врач" style="html=1;dashed=0;whiteSpace=wrap;fillColor=#bac8d3;strokeColor=#23445d;" vertex="1" parent="1">
          <mxGeometry x="1319" y="2291" width="100" height="50" as="geometry" />
        </mxCell>
        <mxCell id="pBG7ZQ73Q339dmQeDpmW-49" value="Склад" style="html=1;dashed=0;whiteSpace=wrap;fillColor=#bac8d3;strokeColor=#23445d;" vertex="1" parent="1">
          <mxGeometry x="544" y="2369" width="100" height="50" as="geometry" />
        </mxCell>
        <mxCell id="pBG7ZQ73Q339dmQeDpmW-50" value="Мед.сестра" style="html=1;dashed=0;whiteSpace=wrap;fillColor=#bac8d3;strokeColor=#23445d;" vertex="1" parent="1">
          <mxGeometry x="545" y="2126" width="100" height="50" as="geometry" />
        </mxCell>
        <mxCell id="pBG7ZQ73Q339dmQeDpmW-54" value="&lt;div style=&quot;&quot;&gt;&lt;span style=&quot;font-size: 10px;&quot;&gt;Папка пациента, файл с анализами&lt;/span&gt;&lt;/div&gt;" style="html=1;dashed=0;whiteSpace=wrap;shape=partialRectangle;right=0;align=left;fillColor=#fff2cc;strokeColor=#d6b656;" vertex="1" parent="1">
          <mxGeometry x="1026" y="1968" width="235" height="30" as="geometry" />
        </mxCell>
        <mxCell id="pBG7ZQ73Q339dmQeDpmW-55" value="1.1" style="swimlane;fontStyle=0;childLayout=stackLayout;horizontal=1;startSize=20;fillColor=#dae8fc;horizontalStack=0;resizeParent=1;resizeParentMax=0;resizeLast=0;collapsible=0;marginBottom=0;swimlaneFillColor=#ffffff;strokeColor=#6c8ebf;" vertex="1" parent="1">
          <mxGeometry x="721" y="1859" width="100" height="50" as="geometry" />
        </mxCell>
        <mxCell id="pBG7ZQ73Q339dmQeDpmW-56" value="Создаёт файл для анализов" style="text;strokeColor=#6c8ebf;align=center;fillColor=#dae8fc;html=1;verticalAlign=middle;whiteSpace=wrap;rounded=0;" vertex="1" parent="pBG7ZQ73Q339dmQeDpmW-55">
          <mxGeometry y="20" width="100" height="30" as="geometry" />
        </mxCell>
        <mxCell id="pBG7ZQ73Q339dmQeDpmW-57" value="1.0" style="swimlane;fontStyle=0;childLayout=stackLayout;horizontal=1;startSize=20;fillColor=#dae8fc;horizontalStack=0;resizeParent=1;resizeParentMax=0;resizeLast=0;collapsible=0;marginBottom=0;swimlaneFillColor=#ffffff;strokeColor=#6c8ebf;" vertex="1" parent="1">
          <mxGeometry x="404" y="1859" width="100" height="50" as="geometry" />
        </mxCell>
        <mxCell id="pBG7ZQ73Q339dmQeDpmW-58" value="Называет ФИО" style="text;strokeColor=#6c8ebf;align=center;fillColor=#dae8fc;html=1;verticalAlign=middle;whiteSpace=wrap;rounded=0;" vertex="1" parent="pBG7ZQ73Q339dmQeDpmW-57">
          <mxGeometry y="20" width="100" height="30" as="geometry" />
        </mxCell>
        <mxCell id="pBG7ZQ73Q339dmQeDpmW-59" value="" style="endArrow=classic;html=1;rounded=0;entryX=-0.005;entryY=0.17;entryDx=0;entryDy=0;entryPerimeter=0;" edge="1" parent="1" target="pBG7ZQ73Q339dmQeDpmW-58">
          <mxGeometry width="50" height="50" relative="1" as="geometry">
            <mxPoint x="328" y="1958" as="sourcePoint" />
            <mxPoint x="378" y="1908" as="targetPoint" />
            <Array as="points">
              <mxPoint x="328" y="1884" />
            </Array>
          </mxGeometry>
        </mxCell>
        <mxCell id="pBG7ZQ73Q339dmQeDpmW-60" value="" style="endArrow=classic;html=1;rounded=0;exitX=1.001;exitY=0.152;exitDx=0;exitDy=0;exitPerimeter=0;entryX=0.348;entryY=-0.009;entryDx=0;entryDy=0;entryPerimeter=0;" edge="1" parent="1" source="pBG7ZQ73Q339dmQeDpmW-58" target="pBG7ZQ73Q339dmQeDpmW-45">
          <mxGeometry width="50" height="50" relative="1" as="geometry">
            <mxPoint x="528" y="1893" as="sourcePoint" />
            <mxPoint x="580" y="1957" as="targetPoint" />
            <Array as="points">
              <mxPoint x="580" y="1884" />
            </Array>
          </mxGeometry>
        </mxCell>
        <mxCell id="pBG7ZQ73Q339dmQeDpmW-61" value="" style="endArrow=classic;html=1;rounded=0;exitX=0.75;exitY=0;exitDx=0;exitDy=0;entryX=-0.005;entryY=0.169;entryDx=0;entryDy=0;entryPerimeter=0;" edge="1" parent="1" source="pBG7ZQ73Q339dmQeDpmW-45" target="pBG7ZQ73Q339dmQeDpmW-56">
          <mxGeometry width="50" height="50" relative="1" as="geometry">
            <mxPoint x="671" y="1933" as="sourcePoint" />
            <mxPoint x="720" y="1884" as="targetPoint" />
            <Array as="points">
              <mxPoint x="620" y="1884" />
            </Array>
          </mxGeometry>
        </mxCell>
        <mxCell id="pBG7ZQ73Q339dmQeDpmW-62" value="2.0" style="swimlane;fontStyle=0;childLayout=stackLayout;horizontal=1;startSize=20;fillColor=#d5e8d4;horizontalStack=0;resizeParent=1;resizeParentMax=0;resizeLast=0;collapsible=0;marginBottom=0;swimlaneFillColor=#ffffff;strokeColor=#82b366;" vertex="1" parent="1">
          <mxGeometry x="722" y="2044" width="100" height="50" as="geometry" />
        </mxCell>
        <mxCell id="pBG7ZQ73Q339dmQeDpmW-63" value="Читает и изменяет файл" style="text;strokeColor=#82b366;align=center;fillColor=#d5e8d4;html=1;verticalAlign=middle;whiteSpace=wrap;rounded=0;" vertex="1" parent="pBG7ZQ73Q339dmQeDpmW-62">
          <mxGeometry y="20" width="100" height="30" as="geometry" />
        </mxCell>
        <mxCell id="pBG7ZQ73Q339dmQeDpmW-64" value="2.1" style="swimlane;fontStyle=0;childLayout=stackLayout;horizontal=1;startSize=20;fillColor=#d5e8d4;horizontalStack=0;resizeParent=1;resizeParentMax=0;resizeLast=0;collapsible=0;marginBottom=0;swimlaneFillColor=#ffffff;strokeColor=#82b366;" vertex="1" parent="1">
          <mxGeometry x="722" y="2126" width="100" height="50" as="geometry" />
        </mxCell>
        <mxCell id="pBG7ZQ73Q339dmQeDpmW-65" value="Списывает расх.материалы" style="text;strokeColor=#82b366;align=center;fillColor=#d5e8d4;html=1;verticalAlign=middle;whiteSpace=wrap;rounded=0;" vertex="1" parent="pBG7ZQ73Q339dmQeDpmW-64">
          <mxGeometry y="20" width="100" height="30" as="geometry" />
        </mxCell>
        <mxCell id="pBG7ZQ73Q339dmQeDpmW-66" value="2.2" style="swimlane;fontStyle=0;childLayout=stackLayout;horizontal=1;startSize=20;fillColor=#d5e8d4;horizontalStack=0;resizeParent=1;resizeParentMax=0;resizeLast=0;collapsible=0;marginBottom=0;swimlaneFillColor=#ffffff;strokeColor=#82b366;" vertex="1" parent="1">
          <mxGeometry x="721" y="2209" width="100" height="50" as="geometry" />
        </mxCell>
        <mxCell id="pBG7ZQ73Q339dmQeDpmW-67" value="Вносит результаты" style="text;strokeColor=#82b366;align=center;fillColor=#d5e8d4;html=1;verticalAlign=middle;whiteSpace=wrap;rounded=0;" vertex="1" parent="pBG7ZQ73Q339dmQeDpmW-66">
          <mxGeometry y="20" width="100" height="30" as="geometry" />
        </mxCell>
        <mxCell id="pBG7ZQ73Q339dmQeDpmW-68" value="" style="endArrow=classic;html=1;rounded=0;entryX=-0.002;entryY=0.269;entryDx=0;entryDy=0;exitX=1.001;exitY=0.084;exitDx=0;exitDy=0;exitPerimeter=0;entryPerimeter=0;" edge="1" parent="1" source="pBG7ZQ73Q339dmQeDpmW-56" target="pBG7ZQ73Q339dmQeDpmW-54">
          <mxGeometry width="50" height="50" relative="1" as="geometry">
            <mxPoint x="822" y="1882" as="sourcePoint" />
            <mxPoint x="872" y="1832" as="targetPoint" />
            <Array as="points">
              <mxPoint x="960" y="1882" />
              <mxPoint x="960" y="1976" />
            </Array>
          </mxGeometry>
        </mxCell>
        <mxCell id="pBG7ZQ73Q339dmQeDpmW-69" value="" style="endArrow=classic;html=1;rounded=0;entryX=-0.002;entryY=0.731;entryDx=0;entryDy=0;entryPerimeter=0;exitX=1.004;exitY=0.105;exitDx=0;exitDy=0;exitPerimeter=0;" edge="1" parent="1" source="pBG7ZQ73Q339dmQeDpmW-63" target="pBG7ZQ73Q339dmQeDpmW-54">
          <mxGeometry width="50" height="50" relative="1" as="geometry">
            <mxPoint x="823" y="2067" as="sourcePoint" />
            <mxPoint x="1025" y="1990" as="targetPoint" />
            <Array as="points">
              <mxPoint x="960" y="2068" />
              <mxPoint x="960" y="1990" />
            </Array>
          </mxGeometry>
        </mxCell>
        <mxCell id="pBG7ZQ73Q339dmQeDpmW-71" value="1С.Торговля" style="html=1;dashed=0;whiteSpace=wrap;fillColor=#bac8d3;strokeColor=#23445d;" vertex="1" parent="1">
          <mxGeometry x="1026" y="2290" width="100" height="50" as="geometry" />
        </mxCell>
        <mxCell id="pBG7ZQ73Q339dmQeDpmW-73" value="" style="endArrow=classic;html=1;rounded=0;entryX=-0.005;entryY=0.127;entryDx=0;entryDy=0;entryPerimeter=0;exitX=0.51;exitY=-0.01;exitDx=0;exitDy=0;exitPerimeter=0;" edge="1" parent="1" source="pBG7ZQ73Q339dmQeDpmW-50" target="pBG7ZQ73Q339dmQeDpmW-63">
          <mxGeometry width="50" height="50" relative="1" as="geometry">
            <mxPoint x="596" y="2125" as="sourcePoint" />
            <mxPoint x="587" y="2039" as="targetPoint" />
            <Array as="points">
              <mxPoint x="596" y="2068" />
            </Array>
          </mxGeometry>
        </mxCell>
        <mxCell id="pBG7ZQ73Q339dmQeDpmW-74" value="" style="endArrow=classic;html=1;rounded=0;exitX=1;exitY=0.5;exitDx=0;exitDy=0;entryX=-0.004;entryY=0.177;entryDx=0;entryDy=0;entryPerimeter=0;" edge="1" parent="1" source="pBG7ZQ73Q339dmQeDpmW-50" target="pBG7ZQ73Q339dmQeDpmW-65">
          <mxGeometry width="50" height="50" relative="1" as="geometry">
            <mxPoint x="672" y="2200" as="sourcePoint" />
            <mxPoint x="722" y="2150" as="targetPoint" />
          </mxGeometry>
        </mxCell>
        <mxCell id="pBG7ZQ73Q339dmQeDpmW-75" value="" style="endArrow=classic;html=1;rounded=0;entryX=0;entryY=0.5;entryDx=0;entryDy=0;curved=0;jumpStyle=none;exitX=1.004;exitY=0.164;exitDx=0;exitDy=0;exitPerimeter=0;" edge="1" parent="1" source="pBG7ZQ73Q339dmQeDpmW-65" target="pBG7ZQ73Q339dmQeDpmW-71">
          <mxGeometry width="50" height="50" relative="1" as="geometry">
            <mxPoint x="823" y="2151" as="sourcePoint" />
            <mxPoint x="899" y="2150.55" as="targetPoint" />
            <Array as="points">
              <mxPoint x="959" y="2151" />
              <mxPoint x="959" y="2234" />
              <mxPoint x="959" y="2315" />
            </Array>
          </mxGeometry>
        </mxCell>
        <mxCell id="pBG7ZQ73Q339dmQeDpmW-76" value="" style="endArrow=classic;html=1;rounded=0;entryX=0.448;entryY=1.008;entryDx=0;entryDy=0;entryPerimeter=0;jumpStyle=arc;" edge="1" parent="1" target="pBG7ZQ73Q339dmQeDpmW-54">
          <mxGeometry width="50" height="50" relative="1" as="geometry">
            <mxPoint x="821" y="2236" as="sourcePoint" />
            <mxPoint x="1131" y="1999" as="targetPoint" />
            <Array as="points">
              <mxPoint x="1131" y="2236" />
            </Array>
          </mxGeometry>
        </mxCell>
        <mxCell id="pBG7ZQ73Q339dmQeDpmW-77" value="" style="endArrow=classic;html=1;rounded=0;exitX=0.5;exitY=1;exitDx=0;exitDy=0;entryX=0;entryY=0.25;entryDx=0;entryDy=0;" edge="1" parent="1" source="pBG7ZQ73Q339dmQeDpmW-50" target="pBG7ZQ73Q339dmQeDpmW-67">
          <mxGeometry width="50" height="50" relative="1" as="geometry">
            <mxPoint x="666" y="2288" as="sourcePoint" />
            <mxPoint x="716" y="2238" as="targetPoint" />
            <Array as="points">
              <mxPoint x="595" y="2237" />
            </Array>
          </mxGeometry>
        </mxCell>
        <mxCell id="pBG7ZQ73Q339dmQeDpmW-78" value="2.3" style="swimlane;fontStyle=0;childLayout=stackLayout;horizontal=1;startSize=20;fillColor=#d5e8d4;horizontalStack=0;resizeParent=1;resizeParentMax=0;resizeLast=0;collapsible=0;marginBottom=0;swimlaneFillColor=#ffffff;strokeColor=#82b366;" vertex="1" parent="1">
          <mxGeometry x="1319" y="2122" width="100" height="50" as="geometry" />
        </mxCell>
        <mxCell id="pBG7ZQ73Q339dmQeDpmW-79" value="Видит результаты" style="text;strokeColor=#82b366;align=center;fillColor=#d5e8d4;html=1;verticalAlign=middle;whiteSpace=wrap;rounded=0;" vertex="1" parent="pBG7ZQ73Q339dmQeDpmW-78">
          <mxGeometry y="20" width="100" height="30" as="geometry" />
        </mxCell>
        <mxCell id="pBG7ZQ73Q339dmQeDpmW-80" value="" style="endArrow=classic;html=1;rounded=0;exitX=0.5;exitY=0;exitDx=0;exitDy=0;entryX=0.5;entryY=1;entryDx=0;entryDy=0;" edge="1" parent="1" source="pBG7ZQ73Q339dmQeDpmW-46" target="pBG7ZQ73Q339dmQeDpmW-79">
          <mxGeometry width="50" height="50" relative="1" as="geometry">
            <mxPoint x="1319" y="2148" as="sourcePoint" />
            <mxPoint x="1369" y="2098" as="targetPoint" />
          </mxGeometry>
        </mxCell>
        <mxCell id="pBG7ZQ73Q339dmQeDpmW-82" value="" style="endArrow=classic;html=1;rounded=0;entryX=1;entryY=0.5;entryDx=0;entryDy=0;exitX=0.491;exitY=-0.012;exitDx=0;exitDy=0;exitPerimeter=0;" edge="1" parent="1" source="pBG7ZQ73Q339dmQeDpmW-78" target="pBG7ZQ73Q339dmQeDpmW-54">
          <mxGeometry width="50" height="50" relative="1" as="geometry">
            <mxPoint x="1368" y="2043" as="sourcePoint" />
            <mxPoint x="1368.63" y="1928" as="targetPoint" />
            <Array as="points">
              <mxPoint x="1368" y="1983" />
            </Array>
          </mxGeometry>
        </mxCell>
        <mxCell id="pBG7ZQ73Q339dmQeDpmW-83" value="" style="endArrow=classic;html=1;rounded=0;entryX=0.5;entryY=1;entryDx=0;entryDy=0;exitX=1;exitY=0.5;exitDx=0;exitDy=0;" edge="1" parent="1" source="pBG7ZQ73Q339dmQeDpmW-49" target="pBG7ZQ73Q339dmQeDpmW-71">
          <mxGeometry width="50" height="50" relative="1" as="geometry">
            <mxPoint x="644" y="2397" as="sourcePoint" />
            <mxPoint x="694" y="2347" as="targetPoint" />
            <Array as="points">
              <mxPoint x="1076" y="2394" />
            </Array>
          </mxGeometry>
        </mxCell>
        <mxCell id="pBG7ZQ73Q339dmQeDpmW-84" value="2.4" style="swimlane;fontStyle=0;childLayout=stackLayout;horizontal=1;startSize=20;fillColor=#d5e8d4;horizontalStack=0;resizeParent=1;resizeParentMax=0;resizeLast=0;collapsible=0;marginBottom=0;swimlaneFillColor=#ffffff;strokeColor=#82b366;" vertex="1" parent="1">
          <mxGeometry x="722" y="2368" width="100" height="50" as="geometry" />
        </mxCell>
        <mxCell id="pBG7ZQ73Q339dmQeDpmW-85" value="Видит списание расходников" style="text;strokeColor=#82b366;align=center;fillColor=#d5e8d4;html=1;verticalAlign=middle;whiteSpace=wrap;rounded=0;" vertex="1" parent="pBG7ZQ73Q339dmQeDpmW-84">
          <mxGeometry y="20" width="100" height="30" as="geometry" />
        </mxCell>
        <mxCell id="FGeQiJRuwbwWw4Yfpnnz-1" value="Кассир" style="html=1;dashed=0;whiteSpace=wrap;fillColor=#bac8d3;strokeColor=#23445d;" vertex="1" parent="1">
          <mxGeometry x="544" y="2512" width="100" height="50" as="geometry" />
        </mxCell>
        <mxCell id="FGeQiJRuwbwWw4Yfpnnz-3" value="" style="endArrow=classic;html=1;rounded=0;exitX=0.25;exitY=1;exitDx=0;exitDy=0;entryX=-0.002;entryY=0.538;entryDx=0;entryDy=0;entryPerimeter=0;" edge="1" parent="1" target="FGeQiJRuwbwWw4Yfpnnz-1">
          <mxGeometry width="50" height="50" relative="1" as="geometry">
            <mxPoint x="327" y="2008" as="sourcePoint" />
            <mxPoint x="410" y="2549" as="targetPoint" />
            <Array as="points">
              <mxPoint x="327" y="2539" />
            </Array>
          </mxGeometry>
        </mxCell>
        <mxCell id="FGeQiJRuwbwWw4Yfpnnz-4" value="3.0" style="swimlane;fontStyle=0;childLayout=stackLayout;horizontal=1;startSize=20;fillColor=#f8cecc;horizontalStack=0;resizeParent=1;resizeParentMax=0;resizeLast=0;collapsible=0;marginBottom=0;swimlaneFillColor=#ffffff;strokeColor=#b85450;" vertex="1" parent="1">
          <mxGeometry x="277" y="2445" width="100" height="50" as="geometry" />
        </mxCell>
        <mxCell id="FGeQiJRuwbwWw4Yfpnnz-5" value="Производит&amp;nbsp;&lt;br&gt;оплату" style="text;strokeColor=#b85450;align=center;fillColor=#f8cecc;html=1;verticalAlign=middle;whiteSpace=wrap;rounded=0;" vertex="1" parent="FGeQiJRuwbwWw4Yfpnnz-4">
          <mxGeometry y="20" width="100" height="30" as="geometry" />
        </mxCell>
        <mxCell id="FGeQiJRuwbwWw4Yfpnnz-6" value="1С.Бухгалтерия" style="html=1;dashed=0;whiteSpace=wrap;fillColor=#bac8d3;strokeColor=#23445d;" vertex="1" parent="1">
          <mxGeometry x="1025" y="2512" width="100" height="50" as="geometry" />
        </mxCell>
        <mxCell id="FGeQiJRuwbwWw4Yfpnnz-7" value="ККМ" style="html=1;dashed=0;whiteSpace=wrap;fillColor=#bac8d3;strokeColor=#23445d;" vertex="1" parent="1">
          <mxGeometry x="1024" y="2780" width="100" height="50" as="geometry" />
        </mxCell>
        <mxCell id="FGeQiJRuwbwWw4Yfpnnz-8" value="" style="endArrow=classic;html=1;rounded=0;entryX=0;entryY=0.5;entryDx=0;entryDy=0;exitX=1;exitY=0.5;exitDx=0;exitDy=0;" edge="1" parent="1" target="FGeQiJRuwbwWw4Yfpnnz-6">
          <mxGeometry width="50" height="50" relative="1" as="geometry">
            <mxPoint x="644" y="2539.0000000000005" as="sourcePoint" />
            <mxPoint x="954" y="2539.0000000000005" as="targetPoint" />
          </mxGeometry>
        </mxCell>
        <mxCell id="FGeQiJRuwbwWw4Yfpnnz-9" value="" style="endArrow=classic;html=1;rounded=0;exitX=1.004;exitY=0.095;exitDx=0;exitDy=0;exitPerimeter=0;" edge="1" parent="1">
          <mxGeometry width="50" height="50" relative="1" as="geometry">
            <mxPoint x="1073.62" y="2699" as="sourcePoint" />
            <mxPoint x="1073.62" y="2779" as="targetPoint" />
          </mxGeometry>
        </mxCell>
        <mxCell id="FGeQiJRuwbwWw4Yfpnnz-10" value="3.1" style="swimlane;fontStyle=0;childLayout=stackLayout;horizontal=1;startSize=20;fillColor=#f8cecc;horizontalStack=0;resizeParent=1;resizeParentMax=0;resizeLast=0;collapsible=0;marginBottom=0;swimlaneFillColor=#ffffff;strokeColor=#b85450;" vertex="1" parent="1">
          <mxGeometry x="721" y="2512" width="100" height="50" as="geometry" />
        </mxCell>
        <mxCell id="FGeQiJRuwbwWw4Yfpnnz-11" value="Фиксирует&amp;nbsp;&lt;br&gt;оплату" style="text;strokeColor=#b85450;align=center;fillColor=#f8cecc;html=1;verticalAlign=middle;whiteSpace=wrap;rounded=0;" vertex="1" parent="FGeQiJRuwbwWw4Yfpnnz-10">
          <mxGeometry y="20" width="100" height="30" as="geometry" />
        </mxCell>
        <mxCell id="FGeQiJRuwbwWw4Yfpnnz-12" value="3.2" style="swimlane;fontStyle=0;childLayout=stackLayout;horizontal=1;startSize=20;fillColor=#f8cecc;horizontalStack=0;resizeParent=1;resizeParentMax=0;resizeLast=0;collapsible=0;marginBottom=0;swimlaneFillColor=#ffffff;strokeColor=#b85450;" vertex="1" parent="1">
          <mxGeometry x="1024" y="2649" width="100" height="50" as="geometry" />
        </mxCell>
        <mxCell id="FGeQiJRuwbwWw4Yfpnnz-13" value="Взаимодействует с кассой" style="text;strokeColor=#b85450;align=center;fillColor=#f8cecc;html=1;verticalAlign=middle;whiteSpace=wrap;rounded=0;" vertex="1" parent="FGeQiJRuwbwWw4Yfpnnz-12">
          <mxGeometry y="20" width="100" height="30" as="geometry" />
        </mxCell>
        <mxCell id="FGeQiJRuwbwWw4Yfpnnz-14" value="" style="endArrow=classic;html=1;rounded=0;exitX=0.47;exitY=1.006;exitDx=0;exitDy=0;entryX=0.48;entryY=-0.014;entryDx=0;entryDy=0;exitPerimeter=0;entryPerimeter=0;" edge="1" parent="1" source="FGeQiJRuwbwWw4Yfpnnz-6" target="FGeQiJRuwbwWw4Yfpnnz-12">
          <mxGeometry width="50" height="50" relative="1" as="geometry">
            <mxPoint x="1098" y="2712" as="sourcePoint" />
            <mxPoint x="1148" y="2662" as="targetPoint" />
          </mxGeometry>
        </mxCell>
      </root>
    </mxGraphModel>
  </diagram>
</mxfile>
